<svg id="Ebene_2" data-name="Ebene 2" xmlns="http://www.w3.org/2000/svg" viewBox="0 0 369.083 92.149" width="100%"><defs><style>.cls-1{fill:#022f4c;}.cls-2{fill:#fdc100;}.cls-3{fill:#fbc004;}.cls-4{fill:#11304a;}</style></defs><path class="cls-1" d="M133.971,75.037a7.457,7.457,0,0,1-1.117,2.8,5.435,5.435,0,0,1-1.99,1.728,9.107,9.107,0,0,1-2.934.876,28.4,28.4,0,0,1-3.938.241H106.616q.614-1.532,1.182-3.108t1.138-3.151h15.887a2.09,2.09,0,0,0,1.729-.591,3.031,3.031,0,0,0,.46-1.86,1.2,1.2,0,0,0-.35-1.007,1.751,1.751,0,0,0-1.05-.262h-8.141a12.248,12.248,0,0,1-5.361-.919,3.172,3.172,0,0,1-1.817-3.064,5.8,5.8,0,0,1,.174-1.4l.526-2.626a7.426,7.426,0,0,1,1.117-2.8,5.4,5.4,0,0,1,2.013-1.729,9.386,9.386,0,0,1,2.954-.876,28.6,28.6,0,0,1,3.939-.24h16.018l-2.407,6.3H120.14a2.152,2.152,0,0,0-1.684.569,2.738,2.738,0,0,0-.5,1.838q0,1.271,1.4,1.269h8.141a12.009,12.009,0,0,1,5.361.941,3.219,3.219,0,0,1,1.816,3.086,7.181,7.181,0,0,1-.13,1.313Z"/><path class="cls-1" d="M145.918,80.683a10.269,10.269,0,0,1-5.82-1.357,4.935,4.935,0,0,1-1.97-4.377,11.754,11.754,0,0,1,.306-2.582l1.488-7q.921-4.419,3.655-6.368a12.488,12.488,0,0,1,7.375-1.947h7.966a10.4,10.4,0,0,1,5.842,1.334,4.9,4.9,0,0,1,1.948,4.355,11.916,11.916,0,0,1-.306,2.626l-1.488,7q-.963,4.464-3.677,6.39a12.485,12.485,0,0,1-7.353,1.926ZM159.18,65.364c.029-.145.051-.277.066-.394a2.923,2.923,0,0,0,.022-.35q0-1.313-1.707-1.313H149.6a2.633,2.633,0,0,0-1.619.46,2.5,2.5,0,0,0-.832,1.6l-1.487,7c-.03.146-.052.278-.067.394a2.948,2.948,0,0,0-.021.35,1.161,1.161,0,0,0,.416,1.029,2.213,2.213,0,0,0,1.247.284H155.2a2.705,2.705,0,0,0,1.662-.46,2.5,2.5,0,0,0,.832-1.6Z"/><path class="cls-1" d="M168.021,80.683,174.542,50l7.747-2.407-7.046,33.088Z"/><path class="cls-1" d="M206.71,75.037a7.456,7.456,0,0,1-1.116,2.8,5.438,5.438,0,0,1-1.991,1.728,9.086,9.086,0,0,1-2.933.876,28.417,28.417,0,0,1-3.939.241H179.356q.612-1.532,1.182-3.108t1.138-3.151h15.887a2.091,2.091,0,0,0,1.729-.591,3.031,3.031,0,0,0,.459-1.86,1.2,1.2,0,0,0-.35-1.007,1.749,1.749,0,0,0-1.05-.262H190.21a12.248,12.248,0,0,1-5.361-.919,3.171,3.171,0,0,1-1.816-3.064,5.708,5.708,0,0,1,.175-1.4l.525-2.626a7.425,7.425,0,0,1,1.116-2.8,5.4,5.4,0,0,1,2.013-1.729,9.393,9.393,0,0,1,2.955-.876,28.591,28.591,0,0,1,3.938-.24h16.019l-2.407,6.3H192.879a2.149,2.149,0,0,0-1.683.569,2.738,2.738,0,0,0-.5,1.838q0,1.271,1.4,1.269h8.141a12.009,12.009,0,0,1,5.361.941,3.22,3.22,0,0,1,1.817,3.086,7.187,7.187,0,0,1-.131,1.313Z"/><path class="cls-1" d="M221.5,80.42a6.4,6.4,0,0,1-1.533.5,9.924,9.924,0,0,1-2.232.241q-3.544,0-5.186-1.729a7.209,7.209,0,0,1-1.64-5.142,23.617,23.617,0,0,1,.612-4.858l1.487-7.047h-2.494l2.014-5.339h1.619l1.051-4.99,7.746-2.407-1.576,7.4h4.377l-2.014,5.339h-3.5l-1.488,7.047a10.234,10.234,0,0,0-.307,2.407q0,2.976,2.758,2.976a4.323,4.323,0,0,0,2.67-.613Z"/><path class="cls-1" d="M232.751,80.683a10.413,10.413,0,0,1-5.208-.985,3.389,3.389,0,0,1-1.619-3.13,8.139,8.139,0,0,1,.219-1.663l.568-2.626a6.2,6.2,0,0,1,2.8-4.267,11.6,11.6,0,0,1,6.041-1.335H243.3a9.012,9.012,0,0,1,2.1.2,4.81,4.81,0,0,1,1.355.547l.483-2.188a2.477,2.477,0,0,0,.043-.525,1.075,1.075,0,0,0-.635-1.051,4.72,4.72,0,0,0-1.947-.306H230.432l2.057-6.3H246.45a16.3,16.3,0,0,1,4.006.415,7.331,7.331,0,0,1,2.56,1.139,3.846,3.846,0,0,1,1.334,1.684,5.664,5.664,0,0,1,.373,2.057,6.548,6.548,0,0,1-.088,1.051q-.087.525-.176,1.094L251,80.683a4.821,4.821,0,0,1-2.714-.81,3.3,3.3,0,0,1-1.4-2.6,6.57,6.57,0,0,1-2.537,2.473,8.345,8.345,0,0,1-4.158.941Zm13.306-9.8a10.035,10.035,0,0,0-1.424-.263,17.282,17.282,0,0,0-1.9-.087H236.69a7.3,7.3,0,0,0-1.574.131,1.732,1.732,0,0,0-.854.416,1.422,1.422,0,0,0-.373.788,7.476,7.476,0,0,0-.088,1.247q0,.876.526,1.094a4.126,4.126,0,0,0,1.531.219H241.9a7.838,7.838,0,0,0,2.385-.306,2.246,2.246,0,0,0,1.379-1.489Z"/><path class="cls-1" d="M273.672,80.683,268.463,73.2l-4.6,3.676-.787,3.808H255.86L262.381,50l7.746-2.407-4.419,20.833,13.478-11.379h8.754L273.8,68.69l9.016,11.993Z"/><path class="cls-1" d="M293.147,80.683a10.083,10.083,0,0,1-5.732-1.379,5.045,5.045,0,0,1-2.014-4.486,13.46,13.46,0,0,1,.264-2.451l1.486-7A9.822,9.822,0,0,1,290.981,59a12.53,12.53,0,0,1,7.2-1.947h7.967a10.339,10.339,0,0,1,5.754,1.356,4.968,4.968,0,0,1,2.035,4.465,8.544,8.544,0,0,1-.086,1.181c-.058.409-.133.847-.219,1.313l-1.181,5.69H293.192l-.307,1.313q-.043.219-.066.372a2.417,2.417,0,0,0-.022.328q0,1.358,1.664,1.357h16.762l-2.275,6.259ZM306.409,65.54c.029-.146.05-.285.066-.416a3.535,3.535,0,0,0,.022-.372q0-1.444-1.707-1.445h-7.965a2.264,2.264,0,0,0-2.451,2.057l-.35,1.8h12.035Z"/><path class="cls-2" d="M315.075,80.683l1.355-6.347h6.653l-1.356,6.347Z"/><path class="cls-2" d="M326.76,80.683l5.033-23.634h7.221l-5.033,23.634Zm5.471-25.691,1.312-6.259h7.266L339.5,54.992Z"/><path class="cls-2" d="M348.292,80.683a10.272,10.272,0,0,1-5.821-1.357,4.937,4.937,0,0,1-1.969-4.377,11.7,11.7,0,0,1,.307-2.582l1.486-7q.921-4.419,3.657-6.368a12.479,12.479,0,0,1,7.373-1.947h7.967a10.4,10.4,0,0,1,5.841,1.334,4.9,4.9,0,0,1,1.948,4.355,11.973,11.973,0,0,1-.305,2.626l-1.488,7q-.965,4.464-3.678,6.39a12.484,12.484,0,0,1-7.352,1.926Zm13.261-15.319c.03-.145.051-.277.067-.394a3.146,3.146,0,0,0,.021-.35q0-1.313-1.707-1.313h-7.965a2.631,2.631,0,0,0-1.619.46,2.488,2.488,0,0,0-.832,1.6l-1.488,7c-.029.146-.051.278-.067.394a3.175,3.175,0,0,0-.021.35,1.161,1.161,0,0,0,.416,1.029,2.219,2.219,0,0,0,1.248.284h7.965a2.712,2.712,0,0,0,1.664-.46,2.5,2.5,0,0,0,.83-1.6Z"/><path class="cls-3" d="M37.335,72.747A35.242,35.242,0,0,0,96.582,56.255c-8.548,3.28-18.414,6.542-29.03,9.506C56.755,68.774,46.461,71.123,37.335,72.747Z"/><path class="cls-3" d="M28.736,57.48l.522-.051.1-.01q.339-.034.687-.073l.131-.014.7-.081.118-.014c.253-.03.508-.062.767-.095l.061-.007q1.288-.165,2.671-.372l.087-.014q.4-.06.81-.124l.181-.028.751-.12.2-.033.774-.129.176-.03q.434-.073.875-.151l.086-.015q1-.175,2.031-.369l.069-.013.932-.177.226-.044c.263-.051.528-.1.794-.155l.284-.057q.381-.075.767-.154l.288-.058.8-.164.267-.056q.463-.1.933-.2l.13-.027q1.089-.234,2.2-.483l.27-.06.83-.188.357-.082.755-.174.392-.092.751-.177.385-.091.8-.192.345-.083.992-.243.154-.038,1.166-.291.276-.07.887-.225.405-.1c.257-.066.515-.132.773-.2l.442-.115.743-.2.464-.123.741-.2.461-.125.791-.215.409-.112q.6-.164,1.2-.332t1.2-.338l.387-.11.807-.231.454-.131.738-.214.466-.137.722-.213.458-.136.74-.222.421-.127.856-.26.289-.089q.575-.175,1.144-.353l.174-.055q.478-.149.952-.3l.347-.11c.258-.082.515-.163.771-.246l.385-.124.73-.236.382-.124.733-.241.355-.117.8-.268.265-.088q1.083-.364,2.137-.73l.121-.042q.454-.158.9-.316l.262-.092.754-.268.292-.105.731-.263.268-.1.763-.28.213-.079q.45-.165.891-.332l.065-.023q.984-.37,1.929-.737l.08-.031.828-.325.165-.065c.246-.1.489-.2.73-.291l.186-.075q.359-.144.71-.288l.163-.067c.254-.1.506-.208.754-.312l.089-.037q1.29-.538,2.476-1.064l.054-.024q.358-.159.706-.317l.11-.05.638-.292.117-.054.626-.293.091-.043c.231-.111.46-.22.684-.329l.046-.023.217-.106c-.008-.029-.015-.059-.023-.088-.093-.333-.192-.664-.294-.992-.03-.095-.061-.19-.091-.284-.076-.238-.154-.476-.235-.711l-.105-.3q-.129-.363-.264-.721c-.03-.08-.06-.161-.091-.242-.122-.315-.247-.629-.377-.939v0h0Q94.441,33.3,94,32.4l-.021-.042q-.213-.433-.437-.86l-.013-.024q-.23-.438-.472-.869h0a35.045,35.045,0,0,0-6.248-8.074l-.011-.01a35.206,35.206,0,0,0-3.274-2.785l-.038-.029q-.567-.425-1.151-.827h0q-1.17-.806-2.4-1.514l-.056-.033q-.6-.342-1.208-.661l-.077-.04q-1.234-.642-2.52-1.187l-.061-.026q-.623-.262-1.254-.5l-.135-.051q-.633-.236-1.274-.448l-.056-.018q-.653-.213-1.314-.4l-.041-.012q-.644-.181-1.3-.339l-.175-.043q-.637-.151-1.282-.28l-.154-.029q-1.322-.256-2.669-.412l-.191-.022q-.644-.071-1.292-.117l-.215-.015c-.442-.029-.885-.052-1.329-.064h-.075q-.651-.016-1.3-.008h-.177c-.435.007-.87.024-1.306.048l-.248.014c-.436.027-.873.06-1.311.1-.058,0-.117.013-.175.019-.429.044-.857.1-1.287.157l-.123.016c-.441.064-.883.139-1.325.22l-.25.047q-.651.125-1.3.274c-.077.017-.153.036-.229.054-.453.108-.905.222-1.357.348s-.9.263-1.34.4c-.075.024-.15.047-.224.072q-.633.208-1.254.439l-.238.09c-.42.159-.837.324-1.248.5l-.113.049q-.6.257-1.181.532l-.162.075q-.6.285-1.175.59l-.219.116c-.385.206-.766.417-1.141.636l-.154.091q-.562.332-1.11.682l-.065.041c-.373.24-.74.489-1.1.742l-.178.125q-.529.375-1.044.768l-.153.119q-1.07.83-2.068,1.733l-.118.106q-.485.442-.95.9L37.5,22.9q-.475.473-.931.96l-.03.033q-.468.5-.914,1.023l-.04.046q-.44.513-.857,1.042l-.09.115q-.417.529-.813,1.075l-.04.057q-.816,1.128-1.54,2.318l-.046.075q-.355.588-.689,1.189l-.033.061q-.686,1.242-1.27,2.536v0q-.291.645-.556,1.3l-.018.046a35.216,35.216,0,0,0-1.358,4.076l-.005.017A35.023,35.023,0,0,0,27.1,49.012v0c.01.328.026.656.045.984l0,.03c.02.32.044.642.072.963l0,.044q.088,1,.238,2.005c.049.334.105.668.164,1,.015.085.032.169.047.253.047.252.1.5.149.755q.032.156.066.312c.052.242.108.485.166.727.024.1.046.2.07.294q.125.5.263,1c.011.042.024.083.036.125L28.5,57.5Z"/><circle class="cls-4" cx="92.792" cy="5.251" r="5.25" transform="translate(17.189 59.308) rotate(-38.804)"/><path class="cls-4" d="M126.344,32.285a3.12,3.12,0,0,0-1.731-1.823,13.19,13.19,0,0,0-4.141-1.152c-5.261-.745-13.711-.274-24.128,1.3.162.22.324.441.476.657a26.1,26.1,0,0,1,1.943,3.191,26.173,26.173,0,0,1,4.091.121c1.679.214,2.686.665,2.884,1.372.407,1.46-2.694,3.772-8.215,6.458-.224.109-.453.218-.685.329l-.091.043q-.307.145-.626.293l-.116.054-.638.292-.11.05-.706.317-.054.024q-1.186.525-2.476,1.064l-.089.037q-.373.156-.754.312l-.163.067-.71.288-.186.075-.73.291-.165.065q-.41.162-.828.324l-.08.032q-.945.366-1.93.737l-.064.023c-.294.111-.592.222-.891.332l-.214.079-.762.279-.268.1-.731.263-.292.105-.755.268-.261.092q-.448.157-.9.316L81.124,49q-1.053.364-2.138.73l-.264.088-.8.267-.355.118-.733.241-.383.124-.729.236-.385.124c-.256.083-.514.164-.772.246l-.346.11q-.474.15-.952.3l-.175.055q-.568.177-1.143.353l-.289.089c-.285.087-.57.174-.857.26l-.42.127-.741.222-.457.136-.723.213L68,53.17l-.737.214-.454.131L66,53.746l-.387.11q-.6.169-1.2.338t-1.2.332l-.409.112-.791.215-.461.125-.741.2-.464.123-.743.2-.442.115c-.258.068-.516.134-.773.2l-.406.1-.887.225-.275.07L55.65,56.5l-.154.038-.992.243-.344.083-.8.192-.386.091-.751.177-.391.092-.755.174-.358.082-.83.188-.27.06q-1.114.249-2.2.483l-.13.027q-.47.1-.933.2l-.267.056-.8.164L45,58.906c-.256.052-.512.1-.766.154l-.285.057c-.266.053-.53.1-.793.155l-.226.044L42,59.493l-.068.013q-1.034.194-2.032.369l-.085.015q-.441.078-.875.151l-.176.03-.775.129-.2.033-.75.12-.181.028q-.408.064-.81.124l-.087.014q-1.381.207-2.671.372l-.061.007q-.389.049-.768.095l-.117.014-.7.081-.13.014q-.348.039-.688.073l-.1.01c-.256.026-.509.051-.757.074-6.114.562-9.964.19-10.372-1.27-.179-.643.322-1.451,1.41-2.384a23.667,23.667,0,0,1,3.7-2.457,26.706,26.706,0,0,1-.063-4.5C15.186,54.605,7.883,58.48,3.762,61.782A11.9,11.9,0,0,0,.336,65.594a2.779,2.779,0,0,0-.258,1.935c.4,1.445,2.305,2.4,5.415,2.905,5.831.939,15.92.269,28.42-1.837a321.476,321.476,0,0,0,32.456-7.376,321.812,321.812,0,0,0,31.584-10.5c11.763-4.665,20.73-9.308,25.239-13.128C125.609,35.546,126.749,33.734,126.344,32.285Z"/></svg>