<svg viewBox="0 0 1450 205" fill="none" xmlns="http://www.w3.org/2000/svg">
<path d="M381.957 73.2101C382.255 72.0602 382.425 71.0381 382.425 70.1012C382.425 66.3959 380.002 64.5646 375.156 64.5646H291.122C280.453 64.5646 270.549 67.631 261.368 73.7638C252.187 79.8966 246.449 87.307 244.153 95.9525C243.473 98.4227 243.176 100.808 243.176 103.065C243.176 108.772 245.301 113.797 249.551 118.184C255.417 124.317 263.706 127.383 274.332 127.383H328.825C331.97 127.383 334.436 128.277 336.178 130.109C337.368 131.429 338.006 132.962 338.006 134.666C338.006 135.39 337.879 136.156 337.624 136.923C336.901 139.606 335.201 141.863 332.48 143.694C329.802 145.568 326.87 146.463 323.724 146.463H239.69C233.654 146.463 229.829 149.359 228.256 155.108L227.066 159.665C226.768 160.815 226.598 161.837 226.598 162.774C226.598 166.479 229.021 168.311 233.867 168.311H317.901C328.57 168.311 338.474 165.244 347.655 159.112C356.836 152.979 362.574 145.568 364.87 136.923C365.55 134.495 365.89 132.153 365.89 129.896C365.89 124.189 363.765 119.121 359.514 114.692C353.648 108.559 345.36 105.492 334.733 105.492H280.198C277.053 105.492 274.63 104.555 272.93 102.682C271.655 101.404 271.017 99.9133 271.017 98.2097C271.017 97.4857 271.144 96.7191 271.399 95.9525C272.08 93.2694 273.78 91.0122 276.5 89.1809C279.221 87.3496 282.153 86.4126 285.299 86.4126H369.333C375.369 86.4126 379.152 83.5166 380.682 77.7671L381.957 73.2101Z" fill="url(#paint0_linear)"/>
<path d="M520.568 94.4193C520.568 87.3922 517.891 81.1742 512.577 75.7655C505.266 68.3124 495.022 64.5646 481.888 64.5646H445.546C432.411 64.5646 420.17 68.3124 408.863 75.7655C397.557 83.2185 390.501 92.2473 387.695 102.809L380.342 130.109C379.534 133.005 379.152 135.816 379.152 138.499C379.152 145.526 381.83 151.744 387.143 157.153C394.454 164.606 404.698 168.353 417.832 168.353H454.174C467.309 168.353 479.55 164.606 490.857 157.153C502.163 149.699 509.219 140.671 512.025 130.109L519.378 102.809C520.186 99.8707 520.568 97.1024 520.568 94.4193ZM492.132 102.809L484.779 130.109C483.546 134.666 480.57 138.541 475.725 141.693C470.922 144.887 465.651 146.463 459.955 146.463H423.613C417.917 146.463 413.539 144.844 410.436 141.65C408.141 139.393 406.993 136.753 406.993 133.729C406.993 132.579 407.163 131.344 407.546 130.109L414.899 102.809C416.089 98.2523 419.107 94.3767 423.953 91.2252C428.756 88.031 434.027 86.4552 439.722 86.4552H476.065C481.761 86.4552 486.181 88.031 489.327 91.1826C491.58 93.4824 492.685 96.1655 492.685 99.1893C492.685 100.297 492.472 101.532 492.132 102.809Z" fill="url(#paint1_linear)"/>
<path d="M575.868 42.8017C575.868 39.0965 573.446 37.2651 568.6 37.2651H559.504C553.468 37.2651 549.642 40.1612 548.155 45.9106L517.721 159.665C517.423 160.815 517.253 161.837 517.253 162.774C517.253 166.479 519.676 168.311 524.521 168.311H533.618C539.654 168.311 543.479 165.415 544.967 159.665L575.401 45.9106C575.741 44.7608 575.868 43.7386 575.868 42.8017Z" fill="url(#paint2_linear)"/>
<path d="M720.941 73.2101C721.238 72.0602 721.408 71.0381 721.408 70.1012C721.408 66.3959 718.985 64.5646 714.14 64.5646H630.106C619.437 64.5646 609.533 67.631 600.352 73.7638C591.171 79.8966 585.432 87.307 583.137 95.9525C582.457 98.4227 582.159 100.808 582.159 103.065C582.159 108.772 584.285 113.797 588.535 118.184C594.401 124.317 602.69 127.383 613.316 127.383H667.808C670.954 127.383 673.419 128.277 675.162 130.109C676.352 131.429 676.99 132.962 676.99 134.666C676.99 135.39 676.862 136.156 676.607 136.923C675.885 139.606 674.184 141.863 671.464 143.694C668.786 145.568 665.853 146.463 662.708 146.463H578.674C572.638 146.463 568.812 149.359 567.24 155.108L566.05 159.665C565.752 160.815 565.582 161.837 565.582 162.774C565.582 166.479 568.005 168.311 572.851 168.311H656.884C667.553 168.311 677.457 165.244 686.639 159.112C695.82 152.979 701.558 145.568 703.853 136.923C704.534 134.495 704.831 132.153 704.831 129.896C704.831 124.189 702.706 119.121 698.455 114.692C692.589 108.559 684.301 105.492 673.674 105.492H619.182C616.036 105.492 613.614 104.555 611.913 102.682C610.638 101.404 610.001 99.9133 610.001 98.2097C610.001 97.4857 610.128 96.7191 610.383 95.9525C611.063 93.2694 612.763 91.0122 615.484 89.1809C618.204 87.3496 621.137 86.4126 624.283 86.4126H708.317C714.352 86.4126 718.178 83.5166 719.666 77.7671L720.941 73.2101Z" fill="url(#paint3_linear)"/>
<path d="M758.261 86.4125H780.959C786.995 86.4125 790.82 83.5165 792.308 77.767L793.583 73.21C793.881 72.0601 794.051 71.038 794.051 70.101C794.051 66.3958 791.628 64.5645 786.782 64.5645H764.084L769.1 45.9106C769.397 44.7608 769.567 43.7386 769.567 42.8017C769.567 39.0965 767.145 37.2651 762.299 37.2651H753.203C747.167 37.2651 743.341 40.1612 741.854 45.9106L719.326 130.109C718.56 133.005 718.135 135.815 718.135 138.499C718.135 145.526 720.813 151.744 726.126 157.152C733.437 164.605 743.681 168.353 756.816 168.353H759.068C765.104 168.353 768.93 165.457 770.417 159.708L771.608 155.151C771.905 153.916 772.075 152.894 772.075 151.957C772.075 148.337 769.695 146.505 764.892 146.505H762.639C756.943 146.505 752.565 144.887 749.462 141.693C747.167 139.435 746.019 136.795 746.019 133.771C746.019 132.621 746.189 131.386 746.572 130.151L758.261 86.4125Z" fill="url(#paint4_linear)"/>
<path d="M932.237 94.4193C932.237 87.3922 929.559 81.1742 924.246 75.7655C916.935 68.3124 906.691 64.5646 893.557 64.5646H818.619C812.583 64.5646 808.758 67.4607 807.27 73.2101L805.995 77.7671C805.697 78.917 805.527 79.9391 805.527 80.8761C805.527 84.5813 807.95 86.4126 812.796 86.4126H887.733C893.429 86.4126 897.85 87.9884 900.995 91.14C903.248 93.4398 904.353 96.1229 904.353 99.1467C904.353 100.297 904.183 101.532 903.801 102.767L903.078 105.492H837.237C826.568 105.492 816.664 108.559 807.44 114.692C798.216 120.824 792.478 128.235 790.183 136.88C789.503 139.308 789.163 141.65 789.163 143.907C789.163 149.614 791.33 154.682 795.623 159.112C801.489 165.244 809.778 168.311 820.404 168.311H865.843C878.977 168.311 891.219 164.563 902.525 157.11C913.832 149.657 920.888 140.628 923.693 130.066L931.047 102.767C931.812 99.8707 932.237 97.1024 932.237 94.4193ZM896.447 130.109C895.214 134.666 892.239 138.541 887.393 141.693C882.548 144.844 877.32 146.463 871.624 146.463H826.185C823.04 146.463 820.617 145.526 818.917 143.652C817.641 142.374 817.004 140.884 817.004 139.18C817.004 138.456 817.131 137.689 817.386 136.923C818.109 134.24 819.809 131.983 822.53 130.151C825.25 128.32 828.14 127.383 831.286 127.383H897.127L896.447 130.109Z" fill="url(#paint5_linear)"/>
<path d="M1084.28 73.21C1084.58 72.0601 1084.75 71.038 1084.75 70.101C1084.75 66.3958 1082.32 64.5645 1077.48 64.5645H1072.93C1069.53 64.5645 1063.49 66.1403 1054.78 69.2919L973.553 96.5061L987.069 45.9106C987.367 44.7608 987.537 43.7386 987.537 42.8017C987.537 39.0965 985.114 37.2651 980.268 37.2651H971.172C965.136 37.2651 961.311 40.1612 959.823 45.9106L929.389 159.665C929.092 160.815 928.922 161.837 928.922 162.774C928.922 166.479 931.344 168.311 936.19 168.311H945.286C951.322 168.311 955.148 165.415 956.635 159.665L962.884 136.369L1029.58 163.583C1036.59 166.735 1041.82 168.311 1045.22 168.311H1049.77C1055.8 168.311 1059.63 165.415 1061.11 159.58C1061.37 158.728 1061.5 157.962 1061.5 157.195C1061.5 154.725 1060.22 152.723 1057.67 151.19L978.483 116.438L1076.33 81.6C1080.58 79.7261 1083.26 76.9153 1084.28 73.21Z" fill="url(#paint6_linear)"/>
<path d="M1110.63 127.383H1176.48C1187.14 127.383 1197.05 124.317 1206.23 118.184C1215.41 112.051 1221.19 104.641 1223.53 95.9951C1224.21 93.5676 1224.51 91.2252 1224.51 88.968C1224.51 83.2611 1222.38 78.193 1218.13 73.7638C1212.18 67.631 1203.89 64.5646 1193.22 64.5646H1147.83C1134.69 64.5646 1122.45 68.3124 1111.14 75.7655C1099.84 83.2185 1092.78 92.2473 1089.98 102.809L1082.62 130.109C1081.86 133.005 1081.43 135.816 1081.43 138.499C1081.43 145.526 1084.11 151.744 1089.42 157.153C1096.73 164.606 1106.98 168.353 1120.11 168.353H1195.05C1201.09 168.353 1204.91 165.457 1206.4 159.708L1207.59 155.151C1207.89 153.916 1208.06 152.894 1208.06 151.957C1208.06 148.337 1205.68 146.505 1200.87 146.505H1125.98C1120.28 146.505 1115.9 144.887 1112.8 141.693C1110.51 139.436 1109.36 136.795 1109.36 133.771C1109.36 132.621 1109.53 131.386 1109.91 130.151L1110.63 127.383ZM1117.26 102.809C1118.5 98.2523 1121.47 94.3767 1126.32 91.2252C1131.12 88.031 1136.39 86.4552 1142.09 86.4552H1187.53C1190.67 86.4552 1193.1 87.3496 1194.8 89.1809C1195.99 90.5012 1196.62 92.0769 1196.62 93.8231C1196.62 94.5471 1196.54 95.2711 1196.37 95.9951C1195.65 98.6782 1193.95 100.935 1191.22 102.767C1188.5 104.598 1185.61 105.535 1182.47 105.535H1116.63L1117.26 102.809Z" fill="url(#paint7_linear)"/>
<path d="M1241.81 146.463H1232.71C1226.67 146.463 1222.85 149.359 1221.28 155.108L1220.09 159.665C1219.79 160.815 1219.62 161.837 1219.62 162.774C1219.62 166.479 1222.04 168.311 1226.89 168.311H1235.98C1242.02 168.311 1245.84 165.415 1247.33 159.665L1248.52 155.108C1248.82 153.873 1248.99 152.851 1248.99 151.914C1248.99 148.294 1246.57 146.463 1241.81 146.463Z" fill="url(#paint8_linear)"/>
<path d="M1311.81 70.1438C1311.81 66.4386 1309.39 64.6072 1304.55 64.6072H1295.45C1289.41 64.6072 1285.59 67.5033 1284.1 73.2528L1260.93 159.708C1260.64 160.858 1260.47 161.88 1260.47 162.817C1260.47 166.522 1262.89 168.353 1267.74 168.353H1276.83C1282.87 168.353 1286.69 165.457 1288.18 159.708L1311.35 73.2528C1311.69 72.0603 1311.81 71.0381 1311.81 70.1438Z" fill="url(#paint9_linear)"/>
<path d="M1296.94 59.1131H1306.03C1312.07 59.1131 1315.89 56.2171 1317.47 50.4676L1318.66 45.9106C1318.95 44.7607 1319.12 43.7386 1319.12 42.8017C1319.12 39.0965 1316.7 37.2651 1311.86 37.2651H1302.76C1296.72 37.2651 1292.9 40.1612 1291.41 45.9106L1290.22 50.4676C1289.92 51.7027 1289.75 52.7248 1289.75 53.6618C1289.75 57.2818 1292.13 59.1131 1296.94 59.1131Z" fill="url(#paint10_linear)"/>
<path d="M1442.01 75.7655C1434.7 68.3124 1424.45 64.5646 1411.32 64.5646H1374.98C1361.84 64.5646 1349.6 68.3124 1338.29 75.7655C1326.99 83.2185 1319.93 92.2473 1317.13 102.809L1309.77 130.109C1309.01 133.005 1308.58 135.816 1308.58 138.499C1308.58 145.526 1311.26 151.744 1316.57 157.153C1323.89 164.606 1334.13 168.353 1347.26 168.353H1383.61C1396.74 168.353 1408.98 164.606 1420.29 157.153C1431.59 149.699 1438.65 140.671 1441.46 130.109L1448.81 102.809C1449.57 99.9133 1450 97.1024 1450 94.4193C1450 87.3922 1447.32 81.1742 1442.01 75.7655ZM1421.56 102.809L1414.21 130.109C1412.98 134.666 1410 138.541 1405.16 141.693C1400.31 144.844 1395.08 146.463 1389.39 146.463H1353.04C1347.35 146.463 1342.97 144.844 1339.87 141.65C1337.57 139.393 1336.42 136.753 1336.42 133.729C1336.42 132.579 1336.59 131.344 1336.98 130.109L1344.33 102.809C1345.56 98.2523 1348.54 94.3767 1353.38 91.2252C1358.19 88.031 1363.46 86.4552 1369.15 86.4552H1405.5C1411.19 86.4552 1415.61 88.031 1418.76 91.1826C1421.01 93.4824 1422.12 96.1655 1422.12 99.1893C1422.12 100.297 1421.9 101.532 1421.56 102.809Z" fill="url(#paint11_linear)"/>
<path d="M29.7966 137.775C24.4408 127 21.4229 114.862 21.4229 102C21.4229 57.58 57.5103 21.4221 101.844 21.4221C114.681 21.4221 126.795 24.4459 137.549 29.8121L157.611 16.6948C141.544 6.17537 122.374 0 101.801 0C45.6512 0 0 45.7403 0 102C0 122.613 6.16334 141.82 16.7048 157.876L29.7966 137.775Z" fill="url(#paint12_linear)"/>
<path d="M186.898 46.1234L173.806 66.2253C179.162 77.0003 182.18 89.1381 182.18 102C182.18 146.42 146.092 182.578 101.759 182.578C88.9221 182.578 76.808 179.554 66.054 174.188L45.9913 187.305C62.016 197.867 81.1861 204.042 101.759 204.042C157.909 204.042 203.56 158.302 203.56 102.042C203.603 81.3869 197.439 62.1794 186.898 46.1234Z" fill="url(#paint13_linear)"/>
<path d="M80.9311 163.072C87.4769 165.33 94.4904 166.565 101.801 166.565C137.379 166.565 166.24 137.647 166.24 102C166.24 94.6749 165.008 87.6477 162.755 81.0891L80.9311 163.072Z" fill="url(#paint14_linear)"/>
<path d="M37.4051 102C37.4051 109.325 38.6377 116.353 40.8905 122.911L122.714 40.9279C116.168 38.6707 109.155 37.4356 101.844 37.4356C66.224 37.4782 37.4051 66.3534 37.4051 102Z" fill="url(#paint15_linear)"/>
<path d="M67.9667 156.94L68.3918 156.684L156.379 68.5254L156.634 68.0995L178.312 34.8377L196.037 7.58089L135.636 47.0606L135.211 47.3588L47.2664 135.475L46.9689 135.901L7.56603 196.419L34.7697 178.66L67.9667 156.94Z" fill="url(#paint16_linear)"/>
<defs>
<linearGradient id="paint0_linear" x1="77.5" y1="145.5" x2="87" y2="-1.3151e-06" gradientUnits="userSpaceOnUse">
<stop stop-color="#003246"/>
<stop offset="0.484375" stop-color="#3D96A0"/>
<stop offset="1" stop-color="#7DFFFF"/>
</linearGradient>
<linearGradient id="paint1_linear" x1="77.5" y1="145.5" x2="87" y2="-1.3151e-06" gradientUnits="userSpaceOnUse">
<stop stop-color="#003246"/>
<stop offset="0.484375" stop-color="#3D96A0"/>
<stop offset="1" stop-color="#7DFFFF"/>
</linearGradient>
<linearGradient id="paint2_linear" x1="77.5" y1="145.5" x2="87" y2="-1.3151e-06" gradientUnits="userSpaceOnUse">
<stop stop-color="#003246"/>
<stop offset="0.484375" stop-color="#3D96A0"/>
<stop offset="1" stop-color="#7DFFFF"/>
</linearGradient>
<linearGradient id="paint3_linear" x1="77.5" y1="145.5" x2="87" y2="-1.3151e-06" gradientUnits="userSpaceOnUse">
<stop stop-color="#003246"/>
<stop offset="0.484375" stop-color="#3D96A0"/>
<stop offset="1" stop-color="#7DFFFF"/>
</linearGradient>
<linearGradient id="paint4_linear" x1="77.5" y1="145.5" x2="87" y2="-1.3151e-06" gradientUnits="userSpaceOnUse">
<stop stop-color="#003246"/>
<stop offset="0.484375" stop-color="#3D96A0"/>
<stop offset="1" stop-color="#7DFFFF"/>
</linearGradient>
<linearGradient id="paint5_linear" x1="77.5" y1="145.5" x2="87" y2="-1.3151e-06" gradientUnits="userSpaceOnUse">
<stop stop-color="#003246"/>
<stop offset="0.484375" stop-color="#3D96A0"/>
<stop offset="1" stop-color="#7DFFFF"/>
</linearGradient>
<linearGradient id="paint6_linear" x1="77.5" y1="145.5" x2="87" y2="-1.3151e-06" gradientUnits="userSpaceOnUse">
<stop stop-color="#003246"/>
<stop offset="0.484375" stop-color="#3D96A0"/>
<stop offset="1" stop-color="#7DFFFF"/>
</linearGradient>
<linearGradient id="paint7_linear" x1="77.5" y1="145.5" x2="87" y2="-1.3151e-06" gradientUnits="userSpaceOnUse">
<stop stop-color="#003246"/>
<stop offset="0.484375" stop-color="#3D96A0"/>
<stop offset="1" stop-color="#7DFFFF"/>
</linearGradient>
<linearGradient id="paint8_linear" x1="77.5" y1="145.5" x2="87" y2="-1.3151e-06" gradientUnits="userSpaceOnUse">
<stop stop-color="#003246"/>
<stop offset="0.484375" stop-color="#3D96A0"/>
<stop offset="1" stop-color="#7DFFFF"/>
</linearGradient>
<linearGradient id="paint9_linear" x1="77.5" y1="145.5" x2="87" y2="-1.3151e-06" gradientUnits="userSpaceOnUse">
<stop stop-color="#003246"/>
<stop offset="0.484375" stop-color="#3D96A0"/>
<stop offset="1" stop-color="#7DFFFF"/>
</linearGradient>
<linearGradient id="paint10_linear" x1="77.5" y1="145.5" x2="87" y2="-1.3151e-06" gradientUnits="userSpaceOnUse">
<stop stop-color="#003246"/>
<stop offset="0.484375" stop-color="#3D96A0"/>
<stop offset="1" stop-color="#7DFFFF"/>
</linearGradient>
<linearGradient id="paint11_linear" x1="77.5" y1="145.5" x2="87" y2="-1.3151e-06" gradientUnits="userSpaceOnUse">
<stop stop-color="#003246"/>
<stop offset="0.484375" stop-color="#3D96A0"/>
<stop offset="1" stop-color="#7DFFFF"/>
</linearGradient>
<linearGradient id="paint12_linear" x1="77.5" y1="145.5" x2="87" y2="-1.3151e-06" gradientUnits="userSpaceOnUse">
<stop stop-color="#003246"/>
<stop offset="0.484375" stop-color="#3D96A0"/>
<stop offset="1" stop-color="#7DFFFF"/>
</linearGradient>
<linearGradient id="paint13_linear" x1="77.5" y1="145.5" x2="87" y2="-1.3151e-06" gradientUnits="userSpaceOnUse">
<stop stop-color="#003246"/>
<stop offset="0.484375" stop-color="#3D96A0"/>
<stop offset="1" stop-color="#7DFFFF"/>
</linearGradient>
<linearGradient id="paint14_linear" x1="77.5" y1="145.5" x2="87" y2="-1.3151e-06" gradientUnits="userSpaceOnUse">
<stop stop-color="#003246"/>
<stop offset="0.484375" stop-color="#3D96A0"/>
<stop offset="1" stop-color="#7DFFFF"/>
</linearGradient>
<linearGradient id="paint15_linear" x1="77.5" y1="145.5" x2="87" y2="-1.3151e-06" gradientUnits="userSpaceOnUse">
<stop stop-color="#003246"/>
<stop offset="0.484375" stop-color="#3D96A0"/>
<stop offset="1" stop-color="#7DFFFF"/>
</linearGradient>
<linearGradient id="paint16_linear" x1="77.5" y1="145.5" x2="87" y2="-1.3151e-06" gradientUnits="userSpaceOnUse">
<stop stop-color="#003246"/>
<stop offset="0.484375" stop-color="#3D96A0"/>
<stop offset="1" stop-color="#7DFFFF"/>
</linearGradient>
</defs>
</svg>
