<svg id="Ebene_2" data-name="Ebene 2" xmlns="http://www.w3.org/2000/svg" viewBox="0 0 264.085 48.405"><defs><style>.cls-1{fill:#022f4c;}.cls-2{fill:#fdc100;}</style></defs><path class="cls-1" d="M28.974,31.293a7.473,7.473,0,0,1-1.117,2.8,5.43,5.43,0,0,1-1.991,1.728,9.1,9.1,0,0,1-2.932.876,28.6,28.6,0,0,1-3.939.24H1.619q.613-1.53,1.183-3.107T3.938,30.68H19.826a2.092,2.092,0,0,0,1.73-.591,3.04,3.04,0,0,0,.459-1.86,1.2,1.2,0,0,0-.35-1.006,1.745,1.745,0,0,0-1.051-.263h-8.14a12.268,12.268,0,0,1-5.362-.919A3.172,3.172,0,0,1,5.3,22.978a5.759,5.759,0,0,1,.175-1.4L6,18.95a7.447,7.447,0,0,1,1.116-2.8,5.4,5.4,0,0,1,2.014-1.728,9.388,9.388,0,0,1,2.953-.876,28.77,28.77,0,0,1,3.94-.24H32.037l-2.407,6.3H15.144a2.157,2.157,0,0,0-1.686.569,2.741,2.741,0,0,0-.5,1.839q0,1.269,1.4,1.268H22.5a12.007,12.007,0,0,1,5.361.942,3.22,3.22,0,0,1,1.817,3.085,7.105,7.105,0,0,1-.132,1.313Z"/><path class="cls-1" d="M40.922,36.938A10.277,10.277,0,0,1,35.1,35.582a4.933,4.933,0,0,1-1.969-4.377,11.687,11.687,0,0,1,.306-2.582l1.488-7q.918-4.419,3.654-6.368a12.486,12.486,0,0,1,7.375-1.947h7.966a10.388,10.388,0,0,1,5.842,1.335,4.9,4.9,0,0,1,1.948,4.354,11.976,11.976,0,0,1-.306,2.626l-1.488,7q-.965,4.466-3.677,6.39a12.486,12.486,0,0,1-7.352,1.925ZM54.183,21.62c.029-.145.05-.276.066-.393a2.953,2.953,0,0,0,.022-.351q0-1.312-1.708-1.313H44.6a2.643,2.643,0,0,0-1.62.459,2.5,2.5,0,0,0-.832,1.6l-1.488,7c-.029.147-.051.277-.066.394a2.95,2.95,0,0,0-.022.35,1.161,1.161,0,0,0,.416,1.029,2.224,2.224,0,0,0,1.248.284H50.2a2.715,2.715,0,0,0,1.663-.459,2.5,2.5,0,0,0,.831-1.6Z"/><path class="cls-1" d="M63.024,36.938l6.521-30.68,7.747-2.407L70.245,36.938Z"/><path class="cls-1" d="M101.714,31.293a7.49,7.49,0,0,1-1.117,2.8,5.43,5.43,0,0,1-1.991,1.728,9.093,9.093,0,0,1-2.933.876,28.576,28.576,0,0,1-3.939.24H74.358q.615-1.53,1.183-3.107t1.138-3.151H92.565a2.092,2.092,0,0,0,1.73-.591,3.033,3.033,0,0,0,.46-1.86,1.192,1.192,0,0,0-.351-1.006,1.741,1.741,0,0,0-1.05-.263h-8.14a12.26,12.26,0,0,1-5.361-.919,3.171,3.171,0,0,1-1.817-3.063,5.807,5.807,0,0,1,.174-1.4l.525-2.626a7.447,7.447,0,0,1,1.118-2.8,5.4,5.4,0,0,1,2.012-1.728,9.394,9.394,0,0,1,2.954-.876,28.781,28.781,0,0,1,3.94-.24h16.017l-2.406,6.3H87.883a2.154,2.154,0,0,0-1.685.569,2.741,2.741,0,0,0-.5,1.839q0,1.269,1.4,1.268h8.14a12.009,12.009,0,0,1,5.362.942,3.217,3.217,0,0,1,1.816,3.085,7.1,7.1,0,0,1-.131,1.313Z"/><path class="cls-1" d="M116.506,36.676a6.371,6.371,0,0,1-1.531.5,10.024,10.024,0,0,1-2.233.24q-3.544,0-5.186-1.729a7.21,7.21,0,0,1-1.641-5.142,23.633,23.633,0,0,1,.612-4.859l1.488-7.045h-2.494l2.013-5.34h1.619l1.05-4.99,7.748-2.407-1.576,7.4h4.377l-2.014,5.34h-3.5l-1.488,7.045a10.348,10.348,0,0,0-.305,2.408q0,2.976,2.756,2.976a4.319,4.319,0,0,0,2.67-.613Z"/><path class="cls-1" d="M127.754,36.938a10.426,10.426,0,0,1-5.208-.984,3.389,3.389,0,0,1-1.619-3.13,8.069,8.069,0,0,1,.219-1.663l.569-2.626a6.2,6.2,0,0,1,2.8-4.266,11.584,11.584,0,0,1,6.04-1.335H138.3a9,9,0,0,1,2.1.2,4.812,4.812,0,0,1,1.357.548l.481-2.189a2.337,2.337,0,0,0,.044-.525,1.076,1.076,0,0,0-.635-1.051,4.719,4.719,0,0,0-1.948-.306H125.435l2.056-6.3h13.962a16.181,16.181,0,0,1,4,.416,7.345,7.345,0,0,1,2.561,1.137,3.871,3.871,0,0,1,1.335,1.685,5.686,5.686,0,0,1,.372,2.058,6.514,6.514,0,0,1-.088,1.049q-.088.527-.175,1.1l-3.458,16.193a4.817,4.817,0,0,1-2.714-.809,3.3,3.3,0,0,1-1.4-2.6A6.572,6.572,0,0,1,139.353,36a8.349,8.349,0,0,1-4.159.94Zm13.306-9.8a10.245,10.245,0,0,0-1.423-.263,17.347,17.347,0,0,0-1.9-.087h-6.04a7.315,7.315,0,0,0-1.575.131,1.736,1.736,0,0,0-.853.416,1.408,1.408,0,0,0-.372.788,7.267,7.267,0,0,0-.088,1.247c0,.584.174.948.525,1.094a4.147,4.147,0,0,0,1.531.219h6.04a7.849,7.849,0,0,0,2.386-.306,2.244,2.244,0,0,0,1.378-1.488Z"/><path class="cls-1" d="M168.675,36.938l-5.208-7.483-4.6,3.676-.787,3.807h-7.222l6.522-30.68,7.746-2.407-4.42,20.833,13.479-11.379h8.754L168.807,24.946l9.015,11.992Z"/><path class="cls-1" d="M188.151,36.938a10.1,10.1,0,0,1-5.733-1.377,5.047,5.047,0,0,1-2.013-4.487,13.459,13.459,0,0,1,.263-2.451l1.487-7a9.818,9.818,0,0,1,3.83-6.368,12.534,12.534,0,0,1,7.2-1.947h7.965a10.34,10.34,0,0,1,5.755,1.356,4.967,4.967,0,0,1,2.035,4.465,8.569,8.569,0,0,1-.086,1.182q-.089.612-.219,1.312l-1.182,5.69H188.2l-.306,1.313c-.03.147-.051.271-.066.372a2.434,2.434,0,0,0-.021.328q0,1.359,1.663,1.357h16.763l-2.277,6.258ZM201.413,21.8c.028-.147.051-.285.066-.416a3.535,3.535,0,0,0,.022-.372q0-1.444-1.707-1.445h-7.966a2.266,2.266,0,0,0-2.451,2.057l-.35,1.795h12.035Z"/><path class="cls-2" d="M210.078,36.938l1.357-6.345h6.652l-1.357,6.345Z"/><path class="cls-2" d="M221.764,36.938,226.8,13.305h7.222l-5.034,23.633Zm5.47-25.69,1.314-6.259h7.264L234.5,11.248Z"/><path class="cls-2" d="M243.3,36.938a10.275,10.275,0,0,1-5.82-1.356,4.932,4.932,0,0,1-1.97-4.377,11.687,11.687,0,0,1,.306-2.582l1.488-7q.919-4.419,3.655-6.368a12.483,12.483,0,0,1,7.374-1.947H256.3a10.392,10.392,0,0,1,5.843,1.335,4.9,4.9,0,0,1,1.947,4.354,11.976,11.976,0,0,1-.306,2.626l-1.488,7q-.964,4.466-3.677,6.39a12.484,12.484,0,0,1-7.352,1.925ZM256.558,21.62c.028-.145.05-.276.065-.393a2.758,2.758,0,0,0,.023-.351q0-1.312-1.708-1.313h-7.965a2.637,2.637,0,0,0-1.619.459,2.5,2.5,0,0,0-.833,1.6l-1.488,7c-.029.147-.051.277-.065.394a2.753,2.753,0,0,0-.022.35,1.158,1.158,0,0,0,.416,1.029,2.218,2.218,0,0,0,1.247.284h7.966a2.715,2.715,0,0,0,1.663-.459,2.5,2.5,0,0,0,.831-1.6Z"/></svg>